<?xml version="1.0" encoding="UTF-8"?>
<svg width="24px" height="24px" viewBox="0 0 24 24" version="1.1" xmlns="http://www.w3.org/2000/svg" xmlns:xlink="http://www.w3.org/1999/xlink">
    <!-- Generator: Sketch 52.4 (67378) - http://www.bohemiancoding.com/sketch -->
    <title>icon_消息</title>
    <desc>Created with Sketch.</desc>
    <g id="页面-1" stroke="none" stroke-width="1" fill="none" fill-rule="evenodd">
        <g id="首页" transform="translate(-337.000000, -30.000000)" stroke="#333333" stroke-width="1.5">
            <g id="nav" transform="translate(0.000000, 20.000000)">
                <g id="消息" transform="translate(337.000000, 10.000000)">
                    <path d="M14.6104988,3.04178273 C14.6104988,1.90807799 13.6599478,1 12.5,1 C11.3400522,1 10.3895012,1.92200557 10.3895012,3.04178273 C10.3895012,3.16155989 10.4032773,3.26462396 10.4142981,3.38440111 C7.49651972,4.37325905 5.11325406,7.38997214 5.11325406,10.9721448 L5.11325406,13.7910864 C5.11325406,13.7910864 5.11325406,17.8495822 4.08280162,17.8746518 C3.47114269,17.8746518 3,18.3370474 3,18.902507 C3,19.4679666 3.46838747,19.9303621 4.05524942,19.9303621 L20.9447506,19.9303621 C21.5316125,19.9303621 22,19.4679666 22,18.902507 C22,18.3370474 21.5316125,17.8746518 20.9447506,17.8746518 C19.8895012,17.8746518 19.8895012,13.816156 19.8895012,13.816156 L19.8895012,10.9721448 C19.8895012,7.38997214 17.649507,4.37325905 14.5857019,3.38440111 C14.599478,3.26462396 14.6104988,3.16155989 14.6104988,3.04178273 Z" id="形状" fill-rule="nonzero"></path>
                    <path d="M8.82501359,20.25 C9.17246634,21.9616802 10.6857816,23.25 12.5,23.25 C14.3142184,23.25 15.8275337,21.9616802 16.1749864,20.25 L8.82501359,20.25 Z" id="路径"></path>
                </g>
            </g>
        </g>
    </g>
</svg>