<?xml version="1.0" encoding="UTF-8"?>
<svg width="24px" height="24px" viewBox="0 0 24 24" version="1.1" xmlns="http://www.w3.org/2000/svg" xmlns:xlink="http://www.w3.org/1999/xlink">
    <!-- Generator: Sketch 52.4 (67378) - http://www.bohemiancoding.com/sketch -->
    <title>pic_pos系统支付</title>
    <desc>Created with Sketch.</desc>
    <g id="页面-1" stroke="none" stroke-width="1" fill="none" fill-rule="evenodd">
        <g id="首页_缴费_物业费_选择支付方式" transform="translate(-16.000000, -426.000000)" fill="#FFBE01">
            <g id="pos" transform="translate(0.000000, 414.000000)">
                <g transform="translate(16.000000, 12.000000)">
                    <polygon id="路径" fill-rule="nonzero" points="9.24104235 7.96478873 12.7589577 7.96478873 12.7589577 8.58450704 9.24104235 8.58450704"></polygon>
                    <polygon id="路径" fill-rule="nonzero" points="11.3517915 8.58450704 10.7263844 8.58450704 10.7263844 8.97183099 9.31921824 8.97183099 9.31921824 9.5915493 10.7263844 9.5915493 10.7263844 10.5985915 11.3517915 10.5985915 11.3517915 9.5915493 12.7589577 9.5915493 12.7589577 8.97183099 11.3517915 8.97183099 11.3517915 8.58450704"></polygon>
                    <polygon id="路径" fill-rule="nonzero" points="11.0390879 7.96478873 12.2899023 7.11267606 11.8990228 6.49295775 11.0390879 7.11267606 10.1009772 6.49295775 9.71009772 7.03521127 11.0390879 7.96478873"></polygon>
                    <g id="分组" transform="translate(1.000000, 11.000000)" fill-rule="nonzero">
                        <polygon id="路径" points="1 0.502029419 1.390625 0.502029419 1.390625 2 1 2"></polygon>
                        <polygon id="路径-copy" points="17.0046875 0.5 17.3953125 0.5 17.3953125 1.99797058 17.0046875 1.99797058"></polygon>
                        <polygon id="路径" points="18.6428571 0.5 18 0.5 18 0.8125 18.6428571 0.8125 18.6428571 1.125 18 1.125 18 2 19 2 19 1.6875 18.3571429 1.6875 18.3571429 1.375 19 1.375 19 0.5 18.6428571 0.5"></polygon>
                        <polygon id="路径" points="2.64285714 0.5 2 0.5 2 0.8 2.64285714 0.8 2.64285714 1.1 2 1.1 2 1.4 2.64285714 1.4 2.64285714 1.7 2 1.7 2 2 3 2 3 0.5"></polygon>
                    </g>
                    <rect id="矩形" x="0" y="5" width="1" height="8"></rect>
                    <rect id="矩形" x="2" y="5" width="2" height="6"></rect>
                    <path d="M5,5 L17,5 L17,12 L16.1074289,14 L16.1074289,22 L6.10228937,22 L6.10228937,14 L5,12 L5,5 Z M6,6 L6,11 L16,11 L16,6 L6,6 Z M7,14 L7,15 L9,15 L9,14 L7,14 Z M10,14 L10,15 L12,15 L12,14 L10,14 Z M13,14 L13,15 L15,15 L15,14 L13,14 Z M7,16 L7,17 L9,17 L9,16 L7,16 Z M10,16 L10,17 L12,17 L12,16 L10,16 Z M13,16 L13,17 L15,17 L15,16 L13,16 Z M7,18 L7,19 L9,19 L9,18 L7,18 Z M10,18 L10,19 L12,19 L12,18 L10,18 Z M13,18 L13,19 L15,19 L15,18 L13,18 Z" id="合并形状"></path>
                    <rect id="矩形" x="5" y="2" width="12" height="2"></rect>
                    <rect id="矩形" x="18" y="5" width="2" height="6"></rect>
                    <rect id="矩形" x="21" y="5" width="1" height="8"></rect>
                </g>
            </g>
        </g>
    </g>
</svg>