<?xml version="1.0" encoding="UTF-8"?>
<svg width="24px" height="24px" viewBox="0 0 24 24" version="1.1" xmlns="http://www.w3.org/2000/svg" xmlns:xlink="http://www.w3.org/1999/xlink">
    <!-- Generator: Sketch 52.4 (67378) - http://www.bohemiancoding.com/sketch -->
    <title>pic_微信</title>
    <desc>Created with Sketch.</desc>
    <g id="页面-1" stroke="none" stroke-width="1" fill="none" fill-rule="evenodd">
        <g id="首页_缴费_物业费_选择支付方式" transform="translate(-16.000000, -330.000000)" fill="#12CC0D">
            <g id="微信支付" transform="translate(16.000000, 330.000000)">
                <path d="M8.34313726,15.1005587 C8.23039216,15.1005587 8.11764706,15.2067039 8.00490196,15.2067039 C7.66666666,15.2067039 7.44117648,15.1005587 7.32843138,14.8882682 L7.32843138,14.7821229 L5.18627451,10.3240223 L5.18627451,10.2178771 C5.18627451,10.0055866 5.41176471,9.89944133 5.52450981,9.89944135 C5.63725491,9.89944135 5.63725491,9.89944135 5.75,10.0055866 L8.23039216,11.7039106 C8.45588236,11.8100559 8.68137256,11.9162011 8.90686274,11.9162011 C9.01960784,11.9162011 9.13235294,11.9162011 9.24509804,11.8100559 L20.9705882,6.9273743 C18.9411765,4.59217876 15.4460784,3 11.5,3 C5.18627451,3 0,7.03351956 0,12.0223464 C0,14.7821229 1.57843136,17.2234637 4.05882353,18.8156425 C4.28431373,18.9217877 4.39705883,19.1340782 4.39705883,19.452514 L4.39705883,19.6648045 C4.17156863,20.301676 3.94607843,21.4692738 3.83333333,21.4692738 C3.83333333,21.575419 3.72058823,21.6815643 3.72058823,21.6815642 C3.72058823,21.8938547 3.94607843,22 4.05882353,22 C4.17156863,22 4.17156863,22 4.28431373,21.8938547 L6.76470588,20.5139665 C6.99019608,20.4078212 7.10294118,20.301676 7.32843138,20.301676 L7.66666666,20.301676 C8.79411764,20.6201117 10.1470588,20.8324022 11.5,20.8324022 C17.9264706,20.8324022 23,16.7988827 23,11.8100559 C23,10.3240224 22.5490196,8.83798883 21.6470588,7.67039106 L8.34313726,15.1005587" id="路径"></path>
            </g>
        </g>
    </g>
</svg>