<?xml version="1.0" encoding="UTF-8"?>
<svg width="24px" height="24px" viewBox="0 0 24 24" version="1.1" xmlns="http://www.w3.org/2000/svg" xmlns:xlink="http://www.w3.org/1999/xlink">
    <!-- Generator: Sketch 52.4 (67378) - http://www.bohemiancoding.com/sketch -->
    <title>pic_支付宝</title>
    <desc>Created with Sketch.</desc>
    <g id="页面-1" stroke="none" stroke-width="1" fill="none" fill-rule="evenodd">
        <g id="首页_缴费_物业费_选择支付方式" transform="translate(-16.000000, -282.000000)" fill="#4292ED" fill-rule="nonzero">
            <g id="支付宝-(1)" transform="translate(16.000000, 282.000000)">
                <path d="M14.3054002,14.6466949 C14.3054002,14.6466949 14.8913376,13.8347483 15.530542,12.1601084 C16.1697464,10.5362152 16.2762804,9.62277525 16.2762804,9.62277525 L11.3757135,9.57202858 L11.3757135,7.94813536 L17.3416211,7.8973887 L17.3416211,6.73021544 L11.3224465,6.73021544 L11.3224465,4.14213562 L8.39275974,4.14213562 L8.39275974,6.67946877 L2.74645438,6.67946877 L2.74645438,7.84664203 L8.3394927,7.79589536 L8.3394927,9.52128191 L3.91832908,9.52128191 L3.91832908,10.4347219 L13.1335256,10.4347219 C13.1335256,10.4347219 13.0269915,11.1959218 12.7073893,12.0586151 C12.3345201,12.972055 11.9616509,13.733255 11.9616509,13.733255 C11.9616509,13.733255 7.64702129,12.3123484 5.35653893,12.3123484 C3.06605658,12.3123484 0.296170928,13.2257883 0.0298357688,15.7123748 C-0.23649939,18.1989613 1.30824453,19.6198679 3.54545986,20.1273345 C5.72940815,20.6348012 7.75355536,20.1273345 9.5113674,19.3153879 C11.2691794,18.5034413 13.0269915,16.6258148 13.0269915,16.6258148 L22.1889209,20.8377878 C22.1889209,20.8377878 22.7748583,20.0258412 23.2009945,19.2138946 C23.6271308,18.4526946 24,17.5900014 24,17.5900014 L14.3054002,14.6466949 Z M4.87713565,18.8079213 C1.62784672,18.8079213 0.988642345,17.2855214 0.988642345,16.2198414 C0.988642345,15.1541615 1.68111376,13.9362416 4.39773236,13.7840016 C7.11435095,13.6317616 10.8430432,15.6108815 10.8430432,15.6108815 C10.8430432,15.6108815 8.12642458,18.8079213 4.87713565,18.8079213 Z" id="形状"></path>
            </g>
        </g>
    </g>
</svg>