<?xml version="1.0" encoding="UTF-8"?>
<svg width="24px" height="24px" viewBox="0 0 24 24" version="1.1" xmlns="http://www.w3.org/2000/svg" xmlns:xlink="http://www.w3.org/1999/xlink">
    <!-- Generator: Sketch 52.4 (67378) - http://www.bohemiancoding.com/sketch -->
    <title>pic_快捷支付</title>
    <desc>Created with Sketch.</desc>
    <g id="页面-1" stroke="none" stroke-width="1" fill="none" fill-rule="evenodd">
        <g id="首页_缴费_物业费_选择支付方式" transform="translate(-16.000000, -378.000000)">
            <g id="银行卡" transform="translate(16.000000, 377.500000)">
                <rect id="矩形" fill="#FF8201" x="1" y="3.5" width="22" height="18" rx="1"></rect>
                <rect id="矩形" fill="#FFFFFF" x="1" y="6.5" width="22" height="2"></rect>
                <rect id="矩形" fill="#FFFFFF" x="3" y="10" width="1.5" height="4" rx="0.75"></rect>
                <rect id="矩形-copy-2" fill="#FFFFFF" x="6" y="10" width="1.5" height="4" rx="0.75"></rect>
                <rect id="矩形-copy-3" fill="#FFFFFF" x="9" y="10" width="1.5" height="4" rx="0.75"></rect>
                <path d="M15.7841226,15 L20.9441478,15 C21.2202902,15 21.4441478,15.2238576 21.4441478,15.5 C21.4441478,15.5530454 21.4357067,15.6057528 21.4191412,15.6561452 L20.4329468,18.6561452 C20.3654987,18.8613222 20.1739322,19 19.9579535,19 L14.4359708,19 C14.1598284,19 13.9359708,18.7761424 13.9359708,18.5 C13.9359708,18.4469546 13.9444119,18.3942472 13.9609774,18.3438548 L14.8341359,15.6877095 C14.9690321,15.2773557 15.3521651,15 15.7841226,15 Z" id="矩形" fill="#FFFFFF"></path>
            </g>
        </g>
    </g>
</svg>